<?xml version="1.0" standalone="no"?><!DOCTYPE svg PUBLIC "-//W3C//DTD SVG 1.1//EN" "http://www.w3.org/Graphics/SVG/1.1/DTD/svg11.dtd"><svg t="1662372382795" class="icon" viewBox="0 0 1024 1024" version="1.1" xmlns="http://www.w3.org/2000/svg" p-id="4969" xmlns:xlink="http://www.w3.org/1999/xlink" width="200" height="200"><path d="M149.32 21.32h725.33v959.984H149.32z" fill="#434A54" p-id="4970"></path><path d="M192.006 1023.992c-11.782 0-21.312-9.562-21.312-21.344v-21.344c0-11.782 9.53-21.312 21.312-21.312s21.312 9.532 21.312 21.312v21.344c0 11.782-9.53 21.344-21.312 21.344zM831.996 1023.992c-11.782 0-21.312-9.562-21.312-21.344v-21.344c0-11.782 9.532-21.312 21.312-21.312s21.344 9.532 21.344 21.312v21.344c0 11.782-9.562 21.344-21.344 21.344z" fill="#434A54" p-id="4971"></path><path d="M725.308 554.656h85.376v170.652h-85.376z" fill="#EC87C0" p-id="4972"></path><path d="M639.996 554.656h85.312v170.652h-85.312z" fill="#ED5564" p-id="4973"></path><path d="M298.692 320.002h85.312v170.652h-85.312z" fill="#A0D468" p-id="4974"></path><path d="M639.996 85.32h85.312v170.684h-85.312z" fill="#FFCE54" p-id="4975"></path><path d="M725.308 85.32h85.376v170.684h-85.376z" fill="#48CFAD" p-id="4976"></path><path d="M213.318 170.662h170.684v85.342h-170.684z" fill="#ED5564" p-id="4977"></path><path d="M554.688 85.32h85.308v170.684h-85.308z" fill="#5D9CEC" p-id="4978"></path><path d="M213.318 320.002h85.374v170.652h-85.374z" fill="#AC92EB" p-id="4979"></path><path d="M639.996 405.314h170.688v85.342h-170.688z" fill="#FC6E51" p-id="4980"></path><path d="M213.318 554.656h85.374v170.652h-85.374z" fill="#FFCE54" p-id="4981"></path><path d="M469.314 639.996h170.682v85.312h-170.682z" fill="#48CFAD" p-id="4982"></path><path d="M469.314 554.656h170.682v85.34h-170.682z" fill="#AC92EB" p-id="4983"></path><path d="M874.648 512H149.32c-11.75 0-21.312-9.562-21.312-21.344 0-11.78 9.562-21.342 21.312-21.342h725.33c11.782 0 21.344 9.562 21.344 21.342-0.002 11.78-9.564 21.344-21.346 21.344zM874.648 277.316H149.32c-11.75 0-21.312-9.532-21.312-21.312 0-11.812 9.562-21.344 21.312-21.344h725.33c11.782 0 21.344 9.532 21.344 21.344-0.002 11.78-9.564 21.312-21.346 21.312z" fill="#656D78" p-id="4984"></path><path d="M874.648 0.008H149.32c-11.75 0-21.312 9.53-21.312 21.312v959.984c0 11.782 9.562 21.344 21.312 21.344h725.33c11.782 0 21.344-9.562 21.344-21.344V21.32C895.992 9.54 886.43 0.008 874.648 0.008zM853.34 42.664v661.334H170.694V42.664H853.34z" fill="#656D78" p-id="4985"></path><path d="M490.688 703.996h42.624v298.652h-42.624z" fill="#434A54" p-id="4986"></path><path d="M448.002 895.992c-11.782 0-21.312-9.562-21.312-21.344v-42.652c0-11.812 9.532-21.344 21.312-21.344 11.78 0 21.312 9.532 21.312 21.344v42.652c0 11.782-9.532 21.344-21.312 21.344zM576 895.992c-11.782 0-21.312-9.562-21.312-21.344v-42.652c0-11.812 9.532-21.344 21.312-21.344s21.312 9.532 21.312 21.344v42.652c0 11.782-9.53 21.344-21.312 21.344z" fill="#FFCE54" p-id="4987"></path></svg>